<?xml version="1.0" encoding="UTF-8"?>
<svg id="_レイヤー_2" data-name="レイヤー 2" xmlns="http://www.w3.org/2000/svg" viewBox="0 0 380 88.1">
  <defs>
    <style>
      .cls-1 {
        fill: #231815;
        stroke-width: 0px;
      }
    </style>
  </defs>
  <g id="_レイヤー_2-2" data-name="レイヤー 2">
    <rect class="cls-1" x="264.87" y="40.13" width="19.49" height="4.22" rx="1.2" ry="1.2"/>
    <rect class="cls-1" x="264.87" y="47.89" width="19.49" height="4.22" rx="1.2" ry="1.2"/>
    <path class="cls-1" d="M170.07,49.46c0,.66-.54,1.2-1.2,1.2h-1.83c-.66,0-1.2-.54-1.2-1.2v-3.91c0-.66-.54-1.2-1.2-1.2h-24.05c-.66,0-1.2-.54-1.2-1.2v-1.83c0-.66.54-1.2,1.2-1.2h28.28c.66,0,1.2.54,1.2,1.2v8.13Z"/>
    <rect class="cls-1" x="63.66" y="51.17" width="4.22" height="25.95" rx="1.2" ry="1.2" transform="translate(-11.52 113.81) rotate(-77.01)"/>
    <rect class="cls-1" x="148.53" y="51.17" width="4.22" height="25.95" rx="1.2" ry="1.2" transform="translate(54.26 196.5) rotate(-77.01)"/>
    <g>
      <path class="cls-1" d="M81.12,32.02c0-.66-.54-1.2-1.2-1.2h-1.83c-.66,0-1.2.54-1.2,1.2v6.92c0,.66-.54,1.2-1.2,1.2h-13.87c-.66,0-1.2.54-1.2,1.2v1.83c0,.66.54,1.2,1.2,1.2h13.87c.66,0,1.2.54,1.2,1.2v9.18c0,.66.54,1.2,1.2,1.2h1.83c.66,0,1.2-.54,1.2-1.2v-9.18c0-.66.54-1.2,1.2-1.2h13.87c.66,0,1.2-.54,1.2-1.2v-1.83c0-.66-.54-1.2-1.2-1.2h-13.87c-.66,0-1.2-.54-1.2-1.2v-6.92Z"/>
      <path class="cls-1" d="M126.29,64.85c-.66,0-1.2-.54-1.2-1.2v-22.43c0-.66-.54-1.2-1.2-1.2h-13.12c-.66,0-1.2-.54-1.2-1.2v-6.81c0-.66-.54-1.2-1.2-1.2h-1.83c-.66,0-1.2.54-1.2,1.2v35.65c0,.66.54,1.2,1.2,1.2h1.83c.66,0,1.2-.54,1.2-1.2v-22.22c0-.66.54-1.2,1.2-1.2h8.9c.66,0,1.2.54,1.2,1.2v22.43c0,.66.54,1.2,1.2,1.2h10.49c.66,0,1.2-.54,1.2-1.2v-1.83c0-.66-.54-1.2-1.2-1.2h-6.26Z"/>
    </g>
    <rect class="cls-1" x="43.7" y="40.13" width="5.74" height="4.22" rx="1.2" ry="1.2"/>
    <rect class="cls-1" x="51.7" y="40.13" width="5.74" height="4.22" rx="1.2" ry="1.2"/>
    <rect class="cls-1" x="265.81" y="52.6" width="46.36" height="4.22" rx="1.2" ry="1.2" transform="translate(16.03 164.26) rotate(-32.59)"/>
    <path class="cls-1" d="M336.5,68.33c-.55.35-1.3.19-1.65-.36l-.99-1.54c-.35-.55-.19-1.3.36-1.65l30.95-19.78c.55-.35.47-.64-.19-.64h-24.99c-.66,0-1.2-.54-1.2-1.2v-1.83c0-.66.54-1.2,1.2-1.2h39.44c.66,0,.74.29.19.64l-43.13,27.57Z"/>
    <path class="cls-1" d="M331.98,44.35c.66,0,1.2-.54,1.2-1.2v-1.83c0-.66-.54-1.2-1.2-1.2h-17.1c-.66,0-1.2.54-1.2,1.2v1.83c0,.66.54,1.2,1.2,1.2h5.22c.66,0,1.2.54,1.2,1.2v4.19c0,.66-.54,1.2-1.2,1.2h-5.22c-.66,0-1.2.54-1.2,1.2v1.83c0,.66.54,1.2,1.2,1.2h17.1c.66,0,1.2-.54,1.2-1.2v-1.83c0-.66-.54-1.2-1.2-1.2h-5.26c-.66,0-1.2-.54-1.2-1.2v-4.19c0-.66.54-1.2,1.2-1.2h5.26Z"/>
    <path class="cls-1" d="M15.81,44.36h23.99c.66,0,1.2-.54,1.2-1.2v-11.02c0-.66-.54-1.2-1.2-1.2h-1.83c-.66,0-1.2.54-1.2,1.2v5.02c-.09,1.65-1.47,2.97-3.16,2.97h0s-5.49,0-5.49,0h-12.33c-8.72,0-15.81,6.51-15.81,14.52s7.09,14.52,15.81,14.52h23.98c.66,0,1.2-.54,1.2-1.2v-1.83c0-.66-.54-1.2-1.2-1.2H15.81c-6.39,0-11.58-4.62-11.58-10.3s5.2-10.3,11.58-10.3Z"/>
    <polygon class="cls-1" points="212.61 59.38 212.73 62.65 214.08 65.44 214.06 67.94 216.65 70.82 219.06 72.66 218.5 74.84 215.48 77.83 212.41 80.57 209.75 82.86 207.17 84.49 204.18 85.57 202.24 85.71 201.16 84.47 201.16 81.55 201.84 78.55 202.36 76.7 200.35 76.17 199.25 75.67 197.68 79.04 197.05 82.29 197.09 84.3 199.36 86.55 202.66 88.02 206.66 88.1 211.01 86.88 213.79 84.94 215.88 82.65 217.07 81.32 220.04 83.33 224.2 85.18 228.11 86.49 229.79 86.4 230.8 84.62 232.27 82.49 233.6 80.76 234.14 79.34 233.58 78 232.41 78 230.17 79.69 227.36 82.37 226.28 83.47 225.37 83.43 222.42 81.83 220.06 80.24 219.22 79.12 221.77 75.89 222.73 73.86 222.9 72.13 223.27 70.09 225.7 68.27 227.41 66.26 227.48 64.6 227.02 62.61 224.86 60.71 221.05 59.33 216.89 58.65 213.71 58.7 212.61 59.38"/>
    <path class="cls-1" d="M219.5,3.5c5.42,0,9.29,2.53,10.36,6.76.24.96.88,1.78,1.76,2.24.51.27,1.07.41,1.64.41.41,0,.82-.07,1.21-.22,1.28-.47,2.62-.71,3.99-.71,5.51,0,10,3.74,10,8.34s-4.48,8.34-10,8.34c-.55,0-1.15-.05-1.88-.17-.19-.03-.37-.04-.56-.04-.74,0-1.46.23-2.06.67-.75.55-1.26,1.38-1.4,2.3-.91,6.04-1.11,11.92-.58,17.53-2.93-.69-7.01-1.36-12.33-1.57-.05,0-.09,0-.14,0s-.09,0-.14,0c-5.33.21-9.4.87-12.33,1.57.53-5.61.34-11.49-.58-17.53-.14-.92-.64-1.75-1.4-2.3-.6-.44-1.33-.67-2.06-.67-.19,0-.37.01-.56.04-.73.12-1.32.17-1.88.17-5.51,0-10-3.74-10-8.34s4.48-8.34,10-8.34c1.36,0,2.71.24,3.99.71.39.14.8.22,1.21.22.56,0,1.13-.14,1.64-.41.88-.46,1.52-1.28,1.76-2.24,1.06-4.23,4.93-6.76,10.36-6.76M219.5,0c-7.13,0-12.31,3.67-13.75,9.4-1.6-.59-3.35-.93-5.2-.93-7.44,0-13.5,5.31-13.5,11.84s6.05,11.84,13.5,11.84c.83,0,1.64-.09,2.44-.22.83,5.47,1.31,12.81.05,20.58l-.23,1.46s5.26-2.65,16.69-3.1c11.43.45,16.69,3.1,16.69,3.1l-.23-1.46c-1.26-7.77-.77-15.12.05-20.58.79.13,1.6.22,2.43.22,7.44,0,13.5-5.31,13.5-11.84s-6.05-11.84-13.5-11.84c-1.84,0-3.59.34-5.2.93-1.44-5.73-6.62-9.4-13.75-9.4h0Z"/>
  </g>
</svg>